<svg xmlns="http://www.w3.org/2000/svg" viewBox="0 0 64 64" role="img" aria-label="REVANTA AI SERVICES logo mark">
  <defs>
    <linearGradient id="bg" x1="10" y1="8" x2="54" y2="56" gradientUnits="userSpaceOnUse">
      <stop offset="0" stop-color="#0b1020" />
      <stop offset="1" stop-color="#131b2f" />
    </linearGradient>
    <linearGradient id="accent" x1="18" y1="14" x2="48" y2="50" gradientUnits="userSpaceOnUse">
      <stop offset="0" stop-color="#ffb24d" />
      <stop offset="1" stop-color="#d66f14" />
    </linearGradient>
  </defs>
  <path d="M16 7h32l9 9v32l-9 9H16l-9-9V16z" fill="url(#bg)" />
  <path d="M21 18h16.1c7.3 0 12.2 4 12.2 10.1 0 4.6-2.6 7.8-6.9 9.4L48 46h-8.9l-7.1-7.9H29V46h-8V18zm8 7v7h7.2c2.8 0 4.6-1.3 4.6-3.5 0-2.1-1.7-3.5-4.6-3.5H29z" fill="#fff" />
  <path d="M29 33h8.4L48 50H39.4z" fill="url(#accent)" />
  <path d="M18 20h27.8" stroke="#ffb24d" stroke-width="1.3" stroke-linecap="round" opacity=".32" />
</svg>
